<?xml version="1.0" encoding="utf-8"?>
<!-- Generator: Adobe Illustrator 27.5.0, SVG Export Plug-In . SVG Version: 6.00 Build 0)  -->
<svg version="1.1" xmlns="http://www.w3.org/2000/svg" xmlns:xlink="http://www.w3.org/1999/xlink" x="0px" y="0px"
	 viewBox="0 0 500 500" style="enable-background:new 0 0 500 500;" xml:space="preserve">
<g id="BACKGROUND">
	<radialGradient id="SVGID_1_" cx="82.834" cy="53.333" r="500.3385" gradientUnits="userSpaceOnUse">
		<stop  offset="0" style="stop-color:#2A2B2D"/>
		<stop  offset="0.5097" style="stop-color:#171818"/>
		<stop  offset="1" style="stop-color:#090909"/>
	</radialGradient>
	<rect style="fill:url(#SVGID_1_);" width="500" height="500"/>
</g>
<g id="OBJECTS">
	<g>
		<g>
			
				<linearGradient id="SVGID_00000009572575602079229590000006840543657822229659_" gradientUnits="userSpaceOnUse" x1="58.4058" y1="303.2949" x2="366.5843" y2="101.4003">
				<stop  offset="0.0124" style="stop-color:#FC6D0F"/>
				<stop  offset="1" style="stop-color:#FFEC1A"/>
			</linearGradient>
			<path style="fill:url(#SVGID_00000009572575602079229590000006840543657822229659_);" d="M259.865,234.286
				c-1.112-4.744-9.636-15.416-9.636-15.416s29.648-29.795,33.872-36.095c4.225-6.3,2.815-17.121,0.667-26.608
				c-6.301,2.149-20.234,8.599-33.058,15.714c9.709-11.637,22.162-20.309,31.574-23.867c-13.416-1.927-33.13-3.112-50.844-1.037
				c0,0,15.342-8.078,21.123-10.746c0,0-0.814,3.854-0.964,6.67c12.526-7.337,39.134-21.272,39.134-21.272
				s-27.052,2.742-40.985,6.522c0,0,5.632-6.003,9.116-9.857c-21.346,6.374-42.247,19.789-42.247,19.789s1.779-4.114,3.28-8.282
				c-8.505,7.337-16.732,16.287-16.732,16.287s-4.188,0.814-6.67,0.889c-1.075-3.038-3.225-11.673-3.854-18.492
				c-0.928,1.668-2.41,4.373-2.41,4.373s0.297-10.154,0.595-16.083c-1.854,2.706-4.967,7.151-7.599,10.97l-6.93,5.78l2.188-7.004
				l-8.302,8.041l1.334-5.78c0,0,1.854-2.076,2.076-3.483c0.223-1.408,0.259-3.483-0.038-5.411
				c-0.297-1.928-1.927-1.927-3.336-1.371c-1.408,0.557-4.113,1.742-11.746,5.448c4.075-6.411,9.598-13.86,9.598-13.86
				s-3.854,1.854-7.485,4.596c0,0,7.597-8.969,11.636-12.564c0,0-0.073,2.521,0.038,3.188c4.669-4.892,10.227-11.858,10.227-12.044
				c0-0.185-23.791,6.04-31.24,12.711c-7.448,6.67-3.891,15.916-3.613,16.584c0.278,0.667,0.76,0.648,1.112,0.574
				c0.351-0.075,1.24-0.26,1.24-0.26s-0.092,1.02,0.13,2.891c0.223,1.872,1.02,2.854,2.188,4.373
				c-0.167,2.279-0.686,5.355-0.686,5.781c0,0.426,0.945,0.834,1.593,0.964c0.65,0.13,2.057,0.259,2.057,0.259
				s0.428,1.26,0.539,1.611c0.111,0.353,1.445,0.278,1.445,0.278s0.556,0.964,0.629,1.205c0.074,0.24,0.945,0.222,1.205,0.278
				c0.259,0.055,1.557,2.111,2.057,3.445c0.501,1.335,2.662,1.475,4.392,0.779c5.393-2.168,4.614-5.393,10.784-5.781
				c6.17-0.39,13.914,5.706,18.807,10.82c-9.932-7.189-17.047-6.967-22.976-5.336c0,0,1.557,6.373,2.148,13.785
				c0.595,7.411-2.965,19.27-2.965,19.27s-1.704,2.372-3.483,5.114c3.485-1.334,12.082-5.633,12.082-5.633l-5.041,8.227
				c0,0,11.637-8.598,12.156-9.042c0.518-0.444,4.595-21.642,4.595-21.642l4.744,1.63c0,0,0,5.708-1.334,16.158
				c-7.19,7.931-26.498,21.846-27.424,22.384c-0.928,0.537-1.854,0.611-2.65,0.369c-0.797-0.241-2.873-1.13-5.021-2.168
				c-2.151-1.037-2.261-2.02-2.076-2.297c0.186-0.277,1.131-0.389,3.707-0.963c2.574-0.574,4.354-1.316,5.003-1.631
				c0.647-0.316,1.037-2.02,1.018-2.225c-0.018-0.203-1.093-1.981-1.557-2.686c-0.464-0.705-0.739-0.649-1.054-0.52
				c-0.377,0.156-4.559,2.817-12.822,1.112c-8.264-1.705-11.191-7.782-12.081-8.782c-0.89-1.001-1.668-0.779-2.224-0.371
				c-0.556,0.408-1.557,1.26-2.262,2.002c-0.704,0.741-0.667,1.259-0.37,1.668c0.297,0.408,2.409,2.334,3.151,4.594
				c0.741,2.26-1.521,5.67-1.632,6.264c-0.11,0.593,0.778,2.482,1.743,5.04c0.964,2.558,0.222,3.632-0.334,5.299
				c-0.556,1.668,2.224,1.15,2.594,0.89c0.37-0.26,0.889-2.297,1.037-2.779c0.149-0.482-1.074-5.893-1.223-6.671
				c-0.148-0.778-0.037-2.557,1.408-4.966c6.151,1.188,8.857,4.966,8.857,4.966s-3.224,1.594-3.521,2.372
				c-0.297,0.778,0.668,6.596,0.965,7.227c0.297,0.631,3.112,1.148,3.112,1.148s5.929,4.967,7.114,5.67
				c1.186,0.703,1.964,0.334,2.668-0.074c0.703-0.407,2.076-1.037,2.076-1.037c4.002,3.482,9.116,3.594,12.34,3.001
				c1.039-2.038,1.075-4.521,1.075-4.521s-3.632,0.742-5.781-0.518c21.049-9.043,37.8-21.568,38.393-22.384
				c0.594-0.815,5.225-21.531,5.225-21.531s11.118,2.223,24.682,4.892c-16.231,10.228-39.245,29.572-40.802,31.63
				c-1.557,2.057-1.445,4.391-1.445,4.391h24.236c0,0,11.34-15.286,20.123-23.902c-4.447,6.448-15.454,29.129-16.565,31.797
				c-1.111,2.668-0.444,5.114,0.297,6.744c0.74,1.631,28.311,54.365,29.201,56.662c0.89,2.298,1.148,4.744,1.001,6.484
				c-3.928,4.744-15.565,9.19-15.565,9.19s-6.523,1.632-8.894,2.743c-2.371,1.111-0.814,3.482,0.52,4.002
				c1.334,0.52,5.336,1.704,8.672,2.742c3.335,1.038,6.003,0.815,10.153,1.038c4.151,0.223,13.266,1.26,18.899,0.815
				c5.634-0.444,5.411-3.927,4.67-6.077C273.948,291.208,260.977,239.03,259.865,234.286z"/>
			
				<linearGradient id="SVGID_00000079462134216854658630000005117985495016864680_" gradientUnits="userSpaceOnUse" x1="55.4324" y1="298.7635" x2="363.6142" y2="96.8668">
				<stop  offset="0.0124" style="stop-color:#FC6D0F"/>
				<stop  offset="1" style="stop-color:#FFEC1A"/>
			</linearGradient>
			<path style="fill:url(#SVGID_00000079462134216854658630000005117985495016864680_);" d="M282.322,136.749
				c0,0,26.46-7.708,46.842-8.672l-3.111-3.112c0,0,12.6-3.558,21.196-4.003c-7.115-3.929-13.786-6.597-13.786-6.597
				s-17.193,4.967-20.679,6.152l3.263,3.112C316.047,123.63,307.301,124.594,282.322,136.749z"/>
			
				<linearGradient id="SVGID_00000101824907901206410830000008873060166006011787_" gradientUnits="userSpaceOnUse" x1="107.4422" y1="229.3091" x2="474.305" y2="-11.0308" gradientTransform="matrix(0.9984 -0.056 0.056 0.9984 -120.576 65.9646)">
				<stop  offset="0.0124" style="stop-color:#FC6D0F"/>
				<stop  offset="1" style="stop-color:#FFEC1A"/>
			</linearGradient>
			<path style="fill:url(#SVGID_00000101824907901206410830000008873060166006011787_);" d="M202.901,135.732
				c0,0,13.595-12.824,23.939-18.641l-0.244,5.116c0,0,16.109-9.386,39.193-16.115c5.676-12.248,7.618-17.791,7.618-17.791
				s-22.411,8.458-40.494,20.077l1.142-6.426C234.056,101.953,215.517,114.92,202.901,135.732z"/>
			
				<linearGradient id="SVGID_00000090983211989617724440000013808972048992097929_" gradientUnits="userSpaceOnUse" x1="-183.5502" y1="332.5185" x2="191.0633" y2="87.1008" gradientTransform="matrix(0.9971 0.0766 -0.0766 0.9971 170.6514 -76.9631)">
				<stop  offset="0.0124" style="stop-color:#FC6D0F"/>
				<stop  offset="1" style="stop-color:#FFEC1A"/>
			</linearGradient>
			<path style="fill:url(#SVGID_00000090983211989617724440000013808972048992097929_);" d="M210.29,111.014
				c0,0,13.148-13.532,24.247-23.887c-6.57,3.197-19.526,11.282-19.526,11.282l0.809-4.638c0,0-11.137,9.672-19.126,22.523
				c0,0,9.724-7.794,13.978-10.223C210.466,107.322,210.29,111.014,210.29,111.014z"/>
			
				<linearGradient id="SVGID_00000075853154336986293680000006641059037468615825_" gradientUnits="userSpaceOnUse" x1="-48.8857" y1="258.6029" x2="362.0096" y2="-10.5838">
				<stop  offset="0.0124" style="stop-color:#FC6D0F"/>
				<stop  offset="1" style="stop-color:#FFEC1A"/>
			</linearGradient>
			<polygon style="fill:url(#SVGID_00000075853154336986293680000006641059037468615825_);" points="193.048,104.324 
				196.902,92.911 185.785,102.768 185.785,99.951 173.186,114.256 182.227,108.771 182.005,112.255 			"/>
			
				<linearGradient id="SVGID_00000175287341136722017530000000008266875366310018_" gradientUnits="userSpaceOnUse" x1="34.8502" y1="267.3427" x2="343.0354" y2="65.4438">
				<stop  offset="0.0124" style="stop-color:#FC6D0F"/>
				<stop  offset="1" style="stop-color:#FFEC1A"/>
			</linearGradient>
			<path style="fill:url(#SVGID_00000175287341136722017530000000008266875366310018_);" d="M121.046,189.816
				c0.741,2.26-1.521,5.67-1.632,6.264c-0.111,0.594,0.778,2.482,1.742,5.04c0.964,2.558,0.223,3.632-0.333,5.3
				c-0.557,1.667,2.224,1.148,2.594,0.889c0.369-0.26,0.889-2.297,1.037-2.779c0.148-0.482-1.074-5.893-1.224-6.67
				c-0.147-0.779-0.036-2.558,1.409-4.967c6.151,1.188,8.858,4.967,8.858,4.967s-3.225,1.594-3.521,2.371
				c-0.297,0.778,0.667,6.596,0.965,7.227c0.297,0.631,3.112,1.148,3.112,1.148s5.929,4.967,7.113,5.67
				c1.186,0.703,1.965,0.334,2.669-0.074c0.703-0.407,2.075-1.037,2.075-1.037c4.003,3.482,9.116,3.595,12.341,3.002
				c0.836-1.64,1.021-3.563,1.063-4.254c-5.576,0.686-7.679-1.371-7.679-1.371s1.001-1.278,1.028-1.5
				c0.028-0.223-0.611-0.611-2.474-1.835c-1.862-1.223-3.224-2.585-3.863-3.112c-0.639-0.528-0.861-0.779-1.751-0.68
				c-0.89,0.1-6.143-0.043-7.282-0.433c-1.139-0.39-1-1.223-1-1.64c0-0.417-0.306-8.311-0.39-9.199
				c-0.083-0.891-0.402-1.305-1.31-1.486v-0.008c-8.077-1.773-10.965-7.734-11.846-8.725c-0.889-1.001-1.667-0.779-2.223-0.371
				c-0.557,0.408-1.557,1.26-2.262,2.002c-0.704,0.742-0.668,1.26-0.37,1.668C118.191,185.631,120.304,187.557,121.046,189.816z"/>
			
				<linearGradient id="SVGID_00000018220286502899802250000013020327993282449308_" gradientUnits="userSpaceOnUse" x1="84.8415" y1="343.6471" x2="393.0195" y2="141.7528">
				<stop  offset="0.0124" style="stop-color:#FC6D0F"/>
				<stop  offset="1" style="stop-color:#FFEC1A"/>
			</linearGradient>
			<path style="fill:url(#SVGID_00000018220286502899802250000013020327993282449308_);" d="M239.706,307.959
				c-6.893,2.816-26.237,6.337-26.237,6.337c3.63-3.521,9.189-14.415,11.563-21.457c0,0-5.56,6.374-9.414,9.19
				c1.262-4.373,2.141-11.068,1.769-15.273c0,0-0.004,0.003-0.004,0.004c-0.311-13.851-9.842-24.977-9.842-24.977
				s0.667,4.151,1.111,9.561c-10.895-17.936-25.863-23.501-25.863-23.501h-0.002c10.633,7.404,18.208,18.589,19.758,31.104
				c2.762,22.295-14.637,40.368-38.861,40.368c-24.224,0-46.102-18.073-48.863-40.368c-2.764-22.295,14.637-40.368,38.861-40.368
				c3.404,0,6.758,0.369,10.021,1.044l1.961-8.82c-12.379-2.223-22.607-0.666-37.43,2.817c1.961-2.394,4.499-4.802,6.457-6.545
				c-22.553,6.855-36.981,26.666-34.021,50.048c3.566,28.163,31.037,51.159,62.094,52.56c0.001,0,0.008,0,0.01,0
				c0.99,0.044,32.277,0,40.171,0c10.968,0,53.512-11.94,53.512-11.94l-37.207,2.224
				C219.248,319.966,232.738,314.703,239.706,307.959z"/>
			
				<linearGradient id="SVGID_00000049179337767108071670000004099436496247930025_" gradientUnits="userSpaceOnUse" x1="77.2903" y1="332.1211" x2="385.4689" y2="130.2265">
				<stop  offset="0.0124" style="stop-color:#FC6D0F"/>
				<stop  offset="1" style="stop-color:#FFEC1A"/>
			</linearGradient>
			<path style="fill:url(#SVGID_00000049179337767108071670000004099436496247930025_);" d="M185.452,214.721
				c1.187-0.223,30.39-4.136,30.39-4.136l5.112-6.907h-36.318l-13.858,17.343l-10.565,52.894c-1.84,0.504-3.379,2.266-3.647,4.38
				c-0.316,2.508,1.268,4.54,3.54,4.54c2.273,0,4.37-2.032,4.687-4.54c0.096-0.745,0.005-1.438-0.205-2.06l15.53-53.51
				c0,0,64.037,55.069,64.704,55.514c0.667,0.445,1.778,0.594,2.965-0.073c1.185-0.667,4.892-2.521,4.67-2.891
				c-0.223-0.371-68.114-58.835-68.114-58.835S184.266,214.943,185.452,214.721z"/>
			
				<linearGradient id="SVGID_00000163036082919529616030000003488457265956325507_" gradientUnits="userSpaceOnUse" x1="125.8017" y1="406.1696" x2="433.9787" y2="204.276">
				<stop  offset="0.0124" style="stop-color:#FC6D0F"/>
				<stop  offset="1" style="stop-color:#FFEC1A"/>
			</linearGradient>
			<path style="fill:url(#SVGID_00000163036082919529616030000003488457265956325507_);" d="M392.793,319.966
				c0,0,13.49-5.263,20.458-12.007c-6.893,2.816-26.237,6.337-26.237,6.337c3.63-3.521,9.188-14.415,11.561-21.457
				c0,0-5.559,6.374-9.413,9.19c1.261-4.373,2.14-11.068,1.769-15.273c0,0-0.004,0.003-0.004,0.004
				c-0.311-13.851-9.842-24.977-9.842-24.977s0.667,4.151,1.111,9.561c-10.896-17.936-25.864-23.501-25.864-23.501h-0.001
				c10.633,7.404,18.208,18.589,19.758,31.104c2.762,22.295-14.637,40.368-38.861,40.368c-24.224,0-46.436-18.034-48.863-40.368
				c-1.441-13.268,1.258-22.686,6.803-29.072l-2.521-9.922l36.491,33.373c-0.449,0.702-0.653,1.572-0.491,2.527
				c0.389,2.3,2.663,4.164,5.077,4.164c2.416,0,4.059-1.864,3.669-4.164c-0.389-2.3-2.661-4.164-5.077-4.164
				c-0.115,0-0.218,0.024-0.329,0.032l-28.085-29.745c6.349-2.649,15.832-3.836,15.832-3.836s-7.171-1.39-9.673-1.334
				c9.784-2.612,23.402-1.612,23.402-1.612s-4.335-1.834-10.45-2.779c12.452,0,21.234,2.413,31.574,5.726
				c-21.292-14.874-46.867-11.076-59.043-5.015l-18.78-19.889l3.335-19.011L269.76,205.9l-4.78,28.35l4.558,17.121l5.448-27.572
				l14.612,13.365c-11.286,9.647-17.409,23.963-15.384,39.959c3.566,28.163,31.037,51.159,62.093,52.56c0.002,0,0.009,0,0.011,0
				c0.99,0.044,32.277,0,40.171,0c10.968,0,53.512-11.94,53.512-11.94L392.793,319.966z"/>
		</g>
		<g>
			
				<text transform="matrix(0.949 0 0.3153 0.949 114.9677 378.5148)" style="fill:#FFFFFF; font-family:'Montserrat-Black'; font-size:55.5771px;">THUNDER</text>
		</g>
		<g>
			
				<text transform="matrix(0.949 0 0 1 199.6641 405.5645)" style="fill:#FFFFFF; font-family:'Montserrat-Regular'; font-size:12.1896px;">BIKE RACE TEAM</text>
		</g>
		<g>
			
				<linearGradient id="SVGID_00000140009729786558955410000008464324793557470083_" gradientUnits="userSpaceOnUse" x1="290.338" y1="416.2229" x2="341.0347" y2="386.094">
				<stop  offset="0.0124" style="stop-color:#FC6D0F"/>
				<stop  offset="1" style="stop-color:#FFEC1A"/>
			</linearGradient>
			<polygon style="fill:url(#SVGID_00000140009729786558955410000008464324793557470083_);" points="322.813,401.402 
				327.264,388.221 314.424,399.605 314.424,396.352 299.871,412.873 310.314,406.539 310.057,410.561 			"/>
			
				<linearGradient id="SVGID_00000050654932932785250810000002848035464283482282_" gradientUnits="userSpaceOnUse" x1="493.0279" y1="353.6901" x2="543.722" y2="323.5628" gradientTransform="matrix(0.9958 -0.092 0.092 0.9958 -224.164 122.9508)">
				<stop  offset="0.0124" style="stop-color:#FC6D0F"/>
				<stop  offset="1" style="stop-color:#FFEC1A"/>
			</linearGradient>
			<path style="fill:url(#SVGID_00000050654932932785250810000002848035464283482282_);" d="M313.566,410.066
				c0,0,13.691-5.147,33.896-7.98l-3.385-2.814c0,0,12.219-4.701,20.738-5.936c-7.447-3.256-14.334-5.3-14.334-5.3
				s-16.664,6.526-20.025,8.028l3.535,2.799C333.992,398.863,326.654,401.879,313.566,410.066z"/>
			
				<linearGradient id="SVGID_00000041274121485536072590000005398299211752140983_" gradientUnits="userSpaceOnUse" x1="1886.8263" y1="416.2229" x2="1937.5231" y2="386.094" gradientTransform="matrix(-1 0 0 1 2096.4883 0)">
				<stop  offset="0.0124" style="stop-color:#FC6D0F"/>
				<stop  offset="1" style="stop-color:#FFEC1A"/>
			</linearGradient>
			<polygon style="fill:url(#SVGID_00000041274121485536072590000005398299211752140983_);" points="177.189,401.402 
				172.736,388.221 185.576,399.605 185.576,396.352 200.129,412.873 189.686,406.539 189.943,410.561 			"/>
			
				<linearGradient id="SVGID_00000127041921174873634830000007730714824394786715_" gradientUnits="userSpaceOnUse" x1="2082.6802" y1="500.555" x2="2133.3743" y2="470.4276" gradientTransform="matrix(-0.9958 -0.092 -0.092 0.9958 2320.6514 122.9508)">
				<stop  offset="0.0124" style="stop-color:#FC6D0F"/>
				<stop  offset="1" style="stop-color:#FFEC1A"/>
			</linearGradient>
			<path style="fill:url(#SVGID_00000127041921174873634830000007730714824394786715_);" d="M186.434,410.066
				c0,0-13.689-5.147-33.896-7.98l3.385-2.814c0,0-12.219-4.701-20.738-5.936c7.447-3.256,14.334-5.3,14.334-5.3
				s16.664,6.526,20.025,8.028l-3.535,2.799C166.008,398.863,173.346,401.879,186.434,410.066z"/>
		</g>
	</g>
</g>
</svg>
